<?xml version="1.0" standalone="no"?><!DOCTYPE svg PUBLIC "-//W3C//DTD SVG 1.1//EN" "http://www.w3.org/Graphics/SVG/1.1/DTD/svg11.dtd"><svg t="1762154157899" class="icon" viewBox="0 0 1024 1024" version="1.1" xmlns="http://www.w3.org/2000/svg" p-id="15940" xmlns:xlink="http://www.w3.org/1999/xlink" width="256" height="256"><path d="M90.352941 632.470588v75.294118h172.634353L15.058824 955.693176l53.248 53.248 247.92847-247.92847V933.647059H391.529412v-301.176471h-301.176471zM655.058824 406.588235a112.941176 112.941176 0 1 0 0-225.882353 112.941176 112.941176 0 0 0 0 225.882353z m0-150.588235a37.647059 37.647059 0 1 1 0 75.294118 37.647059 37.647059 0 0 1 0-75.294118z" p-id="15941" fill="#1296db"></path><path d="M918.588235 30.117647H165.647059A75.294118 75.294118 0 0 0 90.352941 105.411765V481.882353h75.294118V105.411765h752.941176v571.090823l-135.168-135.107764a75.294118 75.294118 0 0 0-106.134588 0l-59.873882 59.813647-232.267294-232.267295-53.248 53.308236 134.927058 134.927059 97.520942 97.520941a75.294118 75.294118 0 0 0 106.134588 0l59.873882-59.873883L918.588235 783.058824v75.294117H542.117647v75.294118h376.470588a75.294118 75.294118 0 0 0 75.294118-75.294118V105.411765A75.294118 75.294118 0 0 0 918.588235 30.117647z" p-id="15942" fill="#1296db"></path></svg>